<svg width="0" height="0" class="hidden">
    <symbol xmlns="http://www.w3.org/2000/svg" viewBox="0 0 14 14" id="phone">
    <path d="M5.25 1.167h5.25a1.17 1.17 0 011.167 1.166v9.334a1.17 1.17 0 01-1.167 1.166H5.25a1.17 1.17 0 01-1.167-1.166V10.5H5.25v1.167h5.25V2.333H5.25V3.5H4.083V2.333A1.17 1.17 0 015.25 1.167z" ></path>
    <path d="M5.886 9.094l.822.823L9.625 7 6.708 4.083l-.822.823 1.505 1.51H1.75v1.167h5.64L5.887 9.094z" fill="#969696"></path>
    </symbol>
    <symbol xmlns="http://www.w3.org/2000/svg" viewBox="0 0 18 18" id="massege">
    <path  fill-rule="evenodd" clip-rule="evenodd" d="M3.906 1A1 1 0 014.9 0h8.01a1 1 0 010 2H4.9a.995.995 0 01-.995-1zM.01 8.095l.801 8.01A2.123 2.123 0 002.901 18H14.91A2.129 2.129 0 0017 16.104l.801-8.01A1.885 1.885 0 0015.905 6H1.906C.76 6-.104 6.956.01 8.095zm2.001-.09l13.789.003L14.906 16h-12L2.01 8.004zM2.901 3a1 1 0 000 2H14.91a1 1 0 000-2H2.901z" ></path>
    </symbol>
    <symbol xmlns="http://www.w3.org/2000/svg" viewBox="0 0 20 19" id="location">
    <path fill-rule="evenodd" clip-rule="evenodd" d="M1.552 10.592a.912.912 0 01-1.286 0 .902.902 0 010-1.28L9.357.266a.912.912 0 011.286 0l9.09 9.048a.902.902 0 010 1.28.912.912 0 01-1.285 0l-.266-.266v6.868A1.81 1.81 0 0116.362 19H3.638a1.812 1.812 0 01-1.819-1.805v-6.868l-.266.265zm2.085 6.598l2.727.001V11.76c0-.499.406-.903.906-.903h5.46c.5 0 .906.404.906.903v5.433l2.728.002V8.519L10 2.192 3.636 8.519l.001 8.671zm8.181-4.525v4.527H8.182v-4.525l3.636-.002z" ></path>
    </symbol>
</svg>